<svg fill="#4A8C1C" id="Layer_1" viewBox="0 0 24 24" xmlns="http://www.w3.org/2000/svg" data-name="Layer 1"><path d="m22.657 17.057c.354.372.397.694.297 1.042-.237.687-1.069.789-2.219.928-.453.055-1.196.146-1.436.261-.114.239-.201.977-.255 1.428-.137 1.158-.236 1.995-.927 2.235-.168.058-.607.146-1.054-.301-3.637-3.636-3.033-7.81-3.004-7.987.049-.314.296-.561.611-.61.176-.027 4.351-.633 7.987 3.003zm.343-13.615v4.558c0 .456-.308.854-.749.968-.024.007-.486.125-1.325.28.049.895.074 1.816.074 2.752 0 .473-.008.921-.02 1.357-3.264-1.712-6.205-1.344-6.617-1.28-1.181.184-2.097 1.1-2.28 2.28-.045.297-.613 4.512 2.524 8.518-.788.075-1.656.124-2.606.124-4.397 0-7.169-1.021-7.285-1.063-.275-.104-.492-.324-.591-.602-.046-.129-1.124-3.232-1.124-9.335 0-.933.028-1.854.084-2.751-.844-.155-1.309-.274-1.334-.281-.441-.113-.75-.512-.75-.968v-4.557c0-.417.26-.791.65-.937.114-.043 2.856-1.051 7.389-1.393.492-.044.946.298 1.053.786.13.602.363 1.101 1.908 1.101s1.778-.499 1.908-1.101c.106-.488.556-.829 1.053-.786 4.532.342 7.274 1.35 7.389 1.393.391.146.65.52.65.937zm-12 13.558c0-.553-.447-1-1-1h-1v-1c0-.553-.447-1-1-1s-1 .447-1 1v2c0 .553.447 1 1 1h2c.553 0 1-.447 1-1zm0-8c0-.553-.447-1-1-1h-2c-.553 0-1 .447-1 1v2c0 .553.447 1 1 1s1-.447 1-1v-1h1c.553 0 1-.447 1-1zm6 0c0-.553-.447-1-1-1h-2c-.553 0-1 .447-1 1s.447 1 1 1h1v1c0 .553.447 1 1 1s1-.447 1-1z"/></svg>