<svg fill="#4A8C1C" id="Layer_1" viewBox="0 0 24 24" xmlns="http://www.w3.org/2000/svg" data-name="Layer 1"><path d="m16.196 7.02c-.028-.006-.23-.045-.586-.1l-1.808-3.163c-.203-.355-.542-.612-.938-.711-.089-.022-2.209-.545-4.864-.545s-4.775.522-4.864.545c-.804.201-1.292 1.015-1.091 1.819.201.803 1.012 1.293 1.819 1.091.018-.004 1.847-.455 4.136-.455 1.493 0 2.805.195 3.533.33l.418.732c-.737-.038-1.557-.062-2.451-.062-4.046 0-6.656.479-6.765.499-.353.066-.643.315-.761.654-.04.114-.974 2.834-.974 6.347 0 3.553.942 6.104.982 6.211.116.308.375.54.695.619.11.027 2.747.67 6.822.67 4.052 0 6.59-.498 6.696-.52.336-.067.615-.303.738-.624.043-.114 1.066-2.829 1.066-6.357 0-3.558-1.023-6.248-1.067-6.36-.123-.319-.401-.553-.736-.62zm-2.409 9.513c-.075.454-.448.798-.906.834-1.094.088-2.231.133-3.381.133-1.162 0-2.315-.06-3.428-.177-.452-.048-.815-.395-.884-.845-.125-.825-.188-1.659-.188-2.479s.064-1.666.191-2.522c.068-.462.447-.815.913-.851 2.207-.169 4.598-.171 6.78.006.458.037.832.381.906.835.14.855.211 1.707.211 2.531s-.072 1.673-.213 2.532z"/><path d="m7.071 12.567c-.047.487-.071.966-.071 1.433s.023.936.069 1.406c1.591.125 3.267.117 4.851.023.053-.485.08-.964.08-1.429s-.026-.945-.079-1.429c-1.579-.094-3.256-.093-4.85-.003z"/><path d="m22.417 9.344c-.084-.286-.292-.52-.565-.637s-.585-.106-.851.029l-1.479.759c.255 1.208.478 2.765.478 4.504 0 1.674-.206 3.175-.448 4.361l1.449.743c.143.073.3.11.457.11.131 0 .263-.026.387-.078.272-.114.48-.343.568-.625.024-.077.588-1.922.587-4.512 0-2.646-.56-4.575-.583-4.656z"/></svg>