<?xml version="1.0" encoding="UTF-8"?>
<svg id="Capa_2" data-name="Capa 2" xmlns="http://www.w3.org/2000/svg" viewBox="0 0 350.67 207.62">
  <defs>
    <style>
      .cls-1 {
        fill: #ccdc00;
      }
    </style>
  </defs>
  <g id="Capa_1-2" data-name="Capa 1">
    <path class="cls-1" d="M350.67,73.02v11.2c-2.27,7.77-6.14,13.45-11.87,19.47,3.31,17.49.62,35.34-7.5,51.15-8.75,17.05-22.38,31.12-39.18,40.43-11.92,6.64-25.06,10.75-38.59,12.22l-.25.13h-21.6c-6.56-.92-13.07-2.05-19.54-4.09-23.88-7.04-44.14-20.54-61.88-37.99-23.15,4.69-46.4,5.28-69.97,4.54l-38.99-2.29c-7.76-.46-15.2-1.64-22.75-3.21l-12.29-2.54c-4.31-.89-6.98-5-6.07-9.21s5.02-6.74,9.31-5.84l11.94,2.5c7.12,1.49,14.13,2.58,21.44,3.01l35.6,2.12c19.87.67,39.39.55,59.08-2.44-9.72-11.03-18.26-22.51-25.65-34.95-9.91-16.7-19.16-38.11-16.68-57.85,1.01-8.01,4.03-15.44,9.08-21.71s12.03-9.49,19.61-11.21c11.28-2.44,23.39-1.6,34.69.61,7.29-11.67,17.3-19.8,30.39-23.93,16.19-5.1,36.35-3.44,52.48,1.3,30.13,8.87,59.1,29.84,77.61,55.14,6.35-1.23,13.01-2.25,19.25-.45,7.25,2.22,10.22,7.22,12.33,13.9ZM285.87,116.63c6.18-1.76,12.21-3.49,18-6.27,6.5-3.11,12.25-7.26,17.96-11.81-2.23-7.72-5.62-14.96-9.78-21.86-2.62-.03-4.9-1.27-6.27-3.17-1.56-2.18-1.9-4.73-.97-7.35-16.43-21.3-41.29-39.02-67.05-46.8-10.21-3.08-20.68-4.39-31.31-3.84-13.03.85-24.09,5.2-32.2,15.95,23.4,8.16,50.05,24.52,56.77,49.99,1.27,4.82,1.86,9.56,1.92,14.56.11,8.43-1.8,16.5-5.75,23.98,19.54,3,39.81,1.42,58.67-3.37ZM155.18,148.67c9.02-2.3,17.52-5.26,25.77-9.19,6.61-3.19,12.85-6.76,18.86-11.31-15.82-6.81-30.1-17.36-39.9-31.4-11.52-16.58-14.97-36.07-8.18-55.34-9.23-1.41-19.76-1.89-28.43,1.17-2.48,1.04-4.84,2.18-6.61,4.24-3.46,4.03-5.42,8.94-6.15,14.22-3.23,23.4,17.18,54.76,31.39,72.47,4.22,5.21,8.58,10.14,13.25,15.14ZM216.3,85.97c-5.17-20.95-30.56-34.64-49.59-40.81-4.17,11.06-4.12,22.13.33,32.89,7.66,18.34,26.15,31.87,44.49,38.15,6.26-9,7.32-19.88,4.76-30.23ZM335.7,80.07c.33-1.9.18-4.82-1.48-5.95s-4.23-.43-6.12-.41l5.49,11.73c.97-1.75,1.75-3.27,2.11-5.37ZM167.97,161.02c5.92,5.29,11.92,9.82,18.37,13.95,10.78,6.86,22.46,11.99,34.84,15.12,37.61,9.43,78-7,96.12-41.67,5.25-10.03,7.93-21.17,7.4-32.69-4.92,3.33-9.65,6.46-14.97,8.89-5.72,2.61-11.57,4.48-17.63,6.25-23.92,6.52-50.94,8.22-75.2,2.8-4.29,4.25-8.98,7.85-14.04,11.14-10.83,7.04-22.44,12.26-34.9,16.21Z"/>
  </g>
</svg>