<?xml version="1.0" encoding="UTF-8"?>
<svg id="Capa_2" data-name="Capa 2" xmlns="http://www.w3.org/2000/svg" viewBox="0 0 420.22 240.23">
  <defs>
    <style>
      .cls-1 {
        fill: #ccdc00;
      }
    </style>
  </defs>
  <g id="Capa_1-2" data-name="Capa 1">
    <path class="cls-1" d="M420.22,145.53v4.95c-1.06,2.29-2.7,4.27-5.36,4.92l-61.21,14.9-58.13,14.03-60.39,14.93-36.46,9.13-23.86,6.11c-9.14,4.78-18.29,9.18-27.75,13.22-2.57,1.1-4.96,1.9-7.58,2.84-8.88,2.94-17.71,5.52-26.8,7.77-3.02.75-5.84,1.33-8.88,1.8l-.22.1h-3.2c-2.99-.71-5.5-2.61-6.39-5.43-.99-3.16-.03-6.4,2.43-8.5,1.09-.93,2.23-1.59,3.58-2.22,22.06-10.3,45.62-17.63,69.16-23.98,16.34-8.71,31.99-18.5,46.92-29.46,16.72-12.27,32.53-25.69,47.17-40.33,6.52-6.51,12.57-13.35,18.16-20.58-.11-.06-.25-.15-.31-.17-4.36,1.31-8.66,2.59-13.19,3.45-31.77,6.03-63.41,11.64-95.38,16.92-36.98,6.11-73.75,12.17-110.89,17.01l-34.79,4.53c-3.32.43-6.36.76-9.62.8-3.6.05-6.64-2.44-7.56-5.57-1.02-3.46.38-6.99,3.39-8.92,3.57-2.29,14.9-5.62,19.49-6.95,19.43-5.64,38.26-11.88,56.72-20.23,12.11-5.47,23.71-11.83,34.83-19.13,13.19-8.65,25.86-18.03,37.97-28.17,15.29-12.8,29.61-26.39,43.22-41.33l-37.76,16.78-36.83,17.19-37.51,17.77-55.14,25.97c-2.97,1.4-5.54,3.13-8.36,4.7-3.31,1.84-6.46,3.62-9.98,5.02s-7.34,2.58-11.25,2.74c-3.37.14-6.36-1.75-7.68-4.53-1.45-3.06-.82-6.56,1.52-9.01,1.26-1.32,2.75-2.34,4.37-3.22l10.47-5.68c2.63-1.43,5.22-2.59,7.69-4.34l23.97-16.97,23.65-16.5c2.8-1.95,6.39-1.79,9.07.23,2.48,1.87,3.61,5.18,2.69,8.32l-.12.42c-.02.05.17.05.29.04l31.54-14.95,45.61-21.35,41.32-18.38c3.63-1.62,7.11-2.97,10.81-4.28,2.64-.93,5.26-1.6,8.05-1.91,1-.11,2.01.06,2.96.25,5.09.97,8.27,5.68,7.28,10.79-.39,2.01-1.22,3.87-2.35,5.64-1.78,2.79-3.72,5.36-5.95,7.89-27.99,31.83-61.42,61.29-97.47,83.76-11.54,7.19-23.62,13.29-36.03,18.67-.1.04-.38.14-.45.16-.07.02-.08.12,0,.13.08,0,.39,0,.53-.02l63.63-9.86c19.05-2.95,106.09-17.61,119.68-21.64,8.16-2.42,15.12-4.61,23.76-4.1,2.71.16,5.04,1.42,6.42,3.47,1.54,2.29,1.78,5.04.77,7.57-.43,1.07-1.12,1.92-1.73,2.93-3.68,6.09-7.71,11.78-12.21,17.35-5.84,7.17-12.08,13.98-18.7,20.47-16.41,16.1-34.01,30.66-52.77,43.99l65.67-16.32,65.2-15.75,61.53-14.94c3.9-.95,7.38,1.69,8.76,5.08Z"/>
  </g>
</svg>