<?xml version="1.0" encoding="UTF-8"?>
<svg id="Capa_2" data-name="Capa 2" xmlns="http://www.w3.org/2000/svg" viewBox="0 0 307.84 277.36">
  <defs>
    <style>
      .cls-1 {
        fill: #ccdc00;
      }
    </style>
  </defs>
  <g id="Capa_1-2" data-name="Capa 1">
    <path class="cls-1" d="M307.84,74.5v9.99c-2.07,6.79-6.01,12.63-10.59,18.22-8.77,10.71-20.96,21.91-31.55,30.99-9.94,8.52-20.11,16.61-30.55,24.55,3.21,11.03,6.2,22.69,6.22,34.18-.14,8.73-2.36,16.7-10.77,20.72-6.82,3.26-14.94,3.99-22.5,4.41-7.69.26-15.13.05-22.81-.5-10.4-.74-20.59-1.99-30.94-3.54l-20.16,12.02c2.14,6.56,4.39,12.85,7.06,19.09,1.69,3.79,3.37,7.36,5.61,10.81,1.95,3.16,4.79,5.3,8.41,6.21,11.52,2.9,28.13-4.27,38.27-9.91,13.05-7.28,24.97-16.38,35.36-27.11,3.72-3.84,7.04-7.83,10.05-12.19,2.62-3.8,6.3-10.24,6.49-14.83s3.78-7.88,8.15-7.63,7.69,4.11,7.24,8.64c-.37,3.74-1.24,7.2-2.69,10.68-4.58,11.03-13.3,21.4-21.86,29.69-9.25,8.96-19.47,16.78-30.5,23.43-11.25,6.78-24.97,13.07-38.02,14.8l-.23.13h-12.59c-2.06,0-4.44-1.11-6.44-1.77-5.8-1.91-10.36-5.8-13.83-10.72-2.37-3.51-4.28-7.04-6.07-10.9-3.13-6.76-5.65-13.61-8.08-20.78-12.81,6.86-25.56,13.36-39.25,18.26-9.98,3.31-24.35,7.68-30.89-3.68-3.44-5.98-3.63-13.77-3.43-20.58.71-13.54,3.43-26.52,6.53-39.72-12.02-4.78-23.39-9.97-34.01-17.08C10.14,163.89.19,154.93,0,142.65c-.07-4.49,3.53-8.03,7.9-7.92s7.61,3.7,7.53,8.14c-.07,3.92,5.24,9.08,8.16,11.43,3.88,3.1,7.91,5.69,12.28,8.11,6.95,3.86,14.09,7.08,21.51,10.06,3.18-11.44,6.61-22.56,10.35-33.71,7.12-21.24,15.1-42.1,24.04-62.59-.45-9.61-.5-19.05.12-28.51.42-6.38,1.16-12.47,2.54-18.67,2.39-9.84,5.92-18.71,15.34-23.62,3.5-1.83,7.11-3.01,11-3.81,18.52-3.83,44.12.12,62.65,4.34,28.01,6.37,58.98,17.13,84.3,30.77,9.6,5.17,19.67,11.55,27.63,18.95,5.79,5.39,10.33,11.37,12.49,18.89ZM107.78,43.01c3.18-5.65,6.27-11.07,9.87-16.39,2.45-3.64,5-6.93,7.95-10.31-4.64.72-10.64,2.36-12.81,6.66-1.29,2.32-2.12,4.75-2.87,7.33-1.02,4.16-1.82,8.21-2.14,12.7ZM292.24,82.52c.94-2.04.89-4.12-.03-6.18-4.48-10.04-20.96-20.22-30.51-25.46-29.23-16.04-69.89-29.26-102.97-33.92,8.35,7.74,15.08,16.85,21.53,26.26,5.38,8,10.38,16.22,15.15,24.63,10.29,18.26,19.88,36.87,27.46,56.4l7.2,18.56c9.51-7.34,18.66-14.7,27.64-22.49,6.56-5.69,12.87-11.46,18.92-17.65,5.4-5.52,12.42-13.24,15.62-20.15ZM151.15,197.47c22.79-14.27,44.47-29,66.02-44.91-2.37-6.95-4.97-13.82-7.76-20.64-8.13-19.82-17.46-39.02-28.02-57.66-7.7-13.35-17.03-28.48-27.19-39.97-2.91-3.3-9.13-9.85-13.38-10.73-1.86,1.03-3.31,2.56-4.71,4.14-2.94,3.33-5.32,6.89-7.76,10.62-3.92,6.26-7.6,12.49-10.79,19.19l-10.28,21.61c.62,11.42,1.72,22.78,3.11,34.17,3.36,26.69,8.19,52.99,14.53,79.18l26.23,5ZM71.87,177.87c12.25,4.16,24.02,7.59,36.32,10.66-6.02-26.19-10.55-52.08-13.68-78.57-5.27,13.39-9.9,26.62-14.32,40.06l-8.32,27.84ZM224.75,198.69c.97-1.08.84-2.71,1.18-4.07.44-8.79-1.65-17.81-3.97-26.52-15.46,11.3-30.94,21.93-47.22,32.55,13.04,1.43,25.9,2.27,38.74,1.13,2.52-.27,9.71-1.35,11.26-3.09ZM93.66,229.64l22.2-11.42-3.52-12.85c-14.91-3.54-29.53-7.57-44.29-12.58-1.96,8.15-3.61,16.3-4.75,24.68-.69,5.04-1.09,9.91-1.01,14.95.14,2.54.3,4.87,1.19,7.32,1.92,0,3.72-.24,5.58-.69,8.43-2.06,16.71-5.78,24.61-9.41ZM131.19,209.48l-1.88-.4.36,1.31,1.52-.91Z"/>
  </g>
</svg>