<?xml version="1.0" encoding="UTF-8"?>
<svg id="Capa_2" data-name="Capa 2" xmlns="http://www.w3.org/2000/svg" viewBox="0 0 331.23 340.16">
  <defs>
    <style>
      .cls-1 {
        fill: #ccdc00;
      }
    </style>
  </defs>
  <g id="Capa_1-2" data-name="Capa 1">
    <path class="cls-1" d="M192.88,340.16h-17.19c-4.63-.86-9.17-1.93-13.72-3.67s-9.03-3.78-13.48-6.11c-15.42-8.11-31.5-19.69-45.09-30.73-19.56-15.9-37.82-33.26-54.71-51.98-11.83-13.11-24.04-28.34-33.3-43.31-3.76-6.07-7.07-12.2-9.84-18.77-3.09-7.31-5.09-15.1-5.39-23.04l-.18-.39v-7.8s.16-.34.16-.47c.35-7.72,2.08-16.03,4.44-23.54,11.84-37.7,44.81-75.88,79.27-94.85,7.39-4.07,15.02-7.24,23.16-9.48,8.42-6.75,16.6-12.53,26.22-17.48,8-4.13,16.44-6.72,25.41-7.84,28.41-3.56,58.97,6.67,80.96,24.69,15.43,3.27,30.64,7.73,44.65,14.89,10.22,5.39,18.7,11.45,25.4,21.01,15.65,22.34,20.7,57.72,21.43,84.46.48,17.61-.5,34.91-3.27,52.26-2.19,13.7-5.7,28.05-11.22,40.75-2.07,4.77-4.46,9.17-7.33,13.5-1.87,2.84-4.98,4.35-8.38,3.59-3.01-.67-5.42-3.13-5.98-6.58-11.75,29.23-35.83,57.86-62.16,74.98-6.2,4.03-12.56,7.42-19.39,10.24s-13.5,4.52-20.5,5.68ZM195.72,19.37c-9.23-3.03-18.88-4.18-28.61-3.97-7.14.4-14.09,1.4-20.69,4.14,16.53-1.28,32.54-1.09,49.3-.17ZM122.33,222.78c-14.45-8.63-28.78-20.9-37.9-35.09-9.63-14.98-12.87-31.75-6.49-48.78,2.22-5.92,4.93-11.56,8.07-17.11,9.13-16.14,20.18-31.13,32.94-44.57,8.25-8.69,18.55-17.64,29.31-22.89,5.53-2.7,11.26-4.16,17.42-4.41,11.63-.48,23.79,2.43,34.62,6.63,19.92,7.73,39.87,21.03,53.28,37.81,5,6.26,8.85,13.03,11.68,20.52,2.65,7.02,4.72,14.15,6.33,21.53,4.29,19.68,6.09,39.81,5.3,59.95-.61,15.66-3.21,33.11-9.95,47.3-3.24,6.82-7.69,12.66-13.43,17.56-4.28,3.65-8.74,6.76-13.61,9.6-25.94,15.16-63.48,24.56-93.48,23.81-11.57-.37-21.19-1.82-32.2-6.09,8.15,6.68,16.38,12.72,25.03,18.44s18.67,11.53,28.56,15.24c6.29,2.36,12.73,3.34,19.47,2.88,18.64-1.27,36.93-12.17,50.87-24.08,17.59-15.02,33.25-35.18,42.13-56.64,3.13-7.56,5.03-15.24,5.83-23.39s.9-15.81.52-23.89c-1.46-31.84-9.57-67.9-19.9-98.04-4.2-12.27-9.52-25.34-15.8-36.64-4.8-8.64-10.93-16.29-18.34-22.82-24.58-4.67-49.49-6.32-74.38-5.39-14.95.67-29.33,2.14-43.96,5.72-18.29,15.43-36.16,35.76-47.68,56.85-3.07,5.62-5.62,11.27-7.69,17.31-2.5,7.31-3.7,14.68-3.61,22.42.06,5.58.47,10.87,1.27,16.41,3.61,25.31,13.28,52.7,25,75.37,7.23,14,17.97,31.03,30.32,40.87,3.66,2.92,7.6,5.02,12.06,6.5,12.04,3.98,26.7,4.19,39.3,2.96,18.04-1.76,35.7-6.16,52.47-13.01,9.77-3.99,20.12-9.44,28.09-16.33,4.08-3.53,7.14-7.67,9.43-12.57,5.62-12.03,7.78-27.49,8.31-40.74.77-19.33-.99-38.64-5.22-57.52-1.39-6.2-3.14-12.12-5.36-18.01s-4.94-10.79-8.66-15.6c-11.69-15.12-29.84-27.11-47.53-33.99-8.6-3.35-18.3-5.77-27.49-5.65-4.69.07-8.98,1.16-13.12,3.32-3.83,1.99-7.28,4.28-10.69,6.98-5.2,4.11-9.97,8.6-14.51,13.47-11.42,12.25-21.34,25.8-29.59,40.38-2.67,4.73-4.96,9.46-6.89,14.48-7.22,18.77,2.79,36.04,15.96,48.98,6.83,6.71,14.45,12.41,22.72,17.29,17.68,10.43,41.72,21.37,61.78,25.5,5.19,1.07,14.84,2.45,19.62.4,4.19-1.8,8.9-.09,10.58,4.12s-.48,8.63-4.71,10.17c-8.51,3.09-18.06,2.38-26.89.7-22.62-4.32-49.41-16.44-69.21-28.27ZM313.37,190.92c2.72-19.77,3.23-39.7,1.52-59.58s-6.01-42.26-16.03-58.58c-3.12-5.08-7-9.33-11.83-12.81-8.27-5.99-17.97-10.18-27.85-13.43,3.9,5.85,7.1,11.66,10.08,17.88,4.19,8.75,7.82,17.72,11.06,26.92,8.27,23.49,14.37,47.65,18.28,72.26,2.95,18.54,4.67,39.29,2.94,57.91-.65,6.96-1.89,13.56-3.89,20.35,2.32-3.44,4.01-7.07,5.6-10.88,5.08-12.2,8.32-26.88,10.14-40.03ZM83.95,261.82c-5.6-8.26-10.79-16.24-15.22-24.86-9.36-17.79-16.66-36.54-21.99-55.92-3.86-14.54-6.65-29.2-6.8-44.27-.1-9.7,1.41-19.04,4.65-28.17,2.35-6.89,5.36-13.39,8.9-19.76,4.71-8.91,10.55-16.79,16.54-25.22-20.25,16.45-38.48,39.8-48.12,63.85-4.22,10.77-7,22.29-6.45,33.88.28,5.92,1.52,11.49,3.74,16.99,4.38,10.86,11.46,21.95,18.38,31.43,5.52,7.56,11.33,14.81,17.49,21.88,9.17,10.51,18.64,20.6,28.88,30.17Z"/>
  </g>
</svg>